<svg xmlns="http://www.w3.org/2000/svg" width="170" height="27.107" viewBox="0 0 170 27.107"><defs><style>.a{fill:#f05322;}.b{fill:#fff;}.c{fill:#494949;}</style></defs><path class="a" d="M13.558,0A13.553,13.553,0,1,0,27.112,13.558,13.561,13.561,0,0,0,13.558,0Zm2.621,22.866a1.223,1.223,0,0,1-1.217-1.217,2.928,2.928,0,0,0-1.373-2.43c-.01-.005-6.711-4.05-6.711-4.05a4.929,4.929,0,0,1-2.279-4.3c0-3.235,2.224-5.328,5.67-5.328h3.2a1.19,1.19,0,0,1,0,2.38h-3.2c-1.5,0-3.3.508-3.3,2.948A3.018,3.018,0,0,0,8.4,13.337c.005.01,6.918,4.221,6.938,4.236A4.374,4.374,0,0,1,17.4,21.648,1.2,1.2,0,0,1,16.179,22.866Zm4.457-5.67a1.223,1.223,0,0,1-2.445,0V15.475a1.223,1.223,0,0,1,2.445,0Zm0-5.62A1.224,1.224,0,0,1,19.414,12.8h-4.83a1.223,1.223,0,1,1,0-2.445h3.607V6.731a1.223,1.223,0,0,1,2.445,0Z"/><g transform="translate(4.598 5.539)"><path class="b" d="M21.944,27.119a1.2,1.2,0,0,1-1.223,1.217A1.223,1.223,0,0,1,19.5,27.119a2.928,2.928,0,0,0-1.373-2.43c-.01-.005-6.711-4.05-6.711-4.05a4.929,4.929,0,0,1-2.279-4.3c0-3.235,2.224-5.328,5.67-5.328h3.2a1.19,1.19,0,0,1,0,2.38h-3.2c-1.5,0-3.3.508-3.3,2.948a3.018,3.018,0,0,0,1.424,2.47c.005.01,6.918,4.221,6.938,4.236A4.374,4.374,0,0,1,21.944,27.119Z" transform="translate(-9.14 -11.01)"/></g><g transform="translate(18.192 14.258)"><path class="b" d="M38.605,29.557v1.721a1.223,1.223,0,0,1-2.445,0V29.557a1.223,1.223,0,0,1,2.445,0Z" transform="translate(-36.16 -28.34)"/></g><g transform="translate(13.362 5.514)"><path class="b" d="M33.835,12.177v4.845a1.224,1.224,0,0,1-1.223,1.223h-4.83a1.223,1.223,0,0,1,0-2.445H31.39V12.177a1.223,1.223,0,0,1,2.445,0Z" transform="translate(-26.56 -10.96)"/></g><g transform="translate(34.085 1.706)"><g transform="translate(0.226)"><path class="c" d="M79.067,10.1a3.345,3.345,0,0,0-.885-.941A5.52,5.52,0,0,0,77,8.512c-.418-.171-.85-.322-1.288-.458s-.845-.257-1.258-.377A11.009,11.009,0,0,1,73.4,7.315a2.277,2.277,0,0,1-.649-.382.363.363,0,0,1-.146-.287.42.42,0,0,1,.065-.226.579.579,0,0,1,.236-.211,1.921,1.921,0,0,1,.533-.191,3.876,3.876,0,0,1,.825-.075,6.177,6.177,0,0,1,1.152.1,8.344,8.344,0,0,1,.946.236q.415.128.694.241a1.669,1.669,0,0,0,.589.146A.859.859,0,0,0,78.1,6.55a.785.785,0,0,0,.3-.362,1.464,1.464,0,0,0,.091-.387,3.84,3.84,0,0,0,.02-.448c0-.156-.005-.287-.015-.4a1.293,1.293,0,0,0-.065-.337.842.842,0,0,0-.141-.277A1.1,1.1,0,0,0,78.01,4.1a2.49,2.49,0,0,0-.609-.257,8.356,8.356,0,0,0-.916-.231,10.8,10.8,0,0,0-1.1-.161,11.628,11.628,0,0,0-3.315.136,6.384,6.384,0,0,0-1.811.614,3.75,3.75,0,0,0-1.288,1.087,2.649,2.649,0,0,0-.508,1.6,2.58,2.58,0,0,0,.357,1.368A3.47,3.47,0,0,0,69.7,9.2a5.268,5.268,0,0,0,1.162.649c.413.171.84.327,1.278.463s.84.257,1.243.372a9.822,9.822,0,0,1,1.021.362,2.43,2.43,0,0,1,.649.387.356.356,0,0,1,.146.292.551.551,0,0,1-.1.322.918.918,0,0,1-.337.287,2.577,2.577,0,0,1-.674.226,5.07,5.07,0,0,1-.966.086,8.067,8.067,0,0,1-1.489-.126,8.689,8.689,0,0,1-1.117-.287q-.468-.158-.77-.287a1.188,1.188,0,0,0-1.067-.08.775.775,0,0,0-.342.342,1.318,1.318,0,0,0-.126.418c-.005.126-.015.287-.015.478a2.263,2.263,0,0,0,.091.714.987.987,0,0,0,.4.528,3.009,3.009,0,0,0,.609.292,7.2,7.2,0,0,0,.956.282,12.935,12.935,0,0,0,1.288.226,12.878,12.878,0,0,0,1.58.1,12.177,12.177,0,0,0,2.365-.221,7.287,7.287,0,0,0,1.982-.679,4.1,4.1,0,0,0,1.409-1.182,2.825,2.825,0,0,0,.548-1.726A2.5,2.5,0,0,0,79.067,10.1Z" transform="translate(-68.2 -3.391)"/><g transform="translate(11.596 0.301)"><path class="c" d="M104.426,9.514a6.312,6.312,0,0,1-.413,2.329,4.812,4.812,0,0,1-1.253,1.811,5.738,5.738,0,0,1-2.108,1.177,9.537,9.537,0,0,1-2.963.413,9.663,9.663,0,0,1-2.853-.372A5.374,5.374,0,0,1,92.825,13.8a4.286,4.286,0,0,1-1.187-1.736,6.668,6.668,0,0,1-.387-2.349,6.238,6.238,0,0,1,.423-2.334A4.8,4.8,0,0,1,92.93,5.57a5.741,5.741,0,0,1,2.1-1.167,9.471,9.471,0,0,1,2.953-.413,10.091,10.091,0,0,1,2.868.362,5.215,5.215,0,0,1,2,1.067,4.265,4.265,0,0,1,1.177,1.736A6.483,6.483,0,0,1,104.426,9.514Zm-3.567.111a6.014,6.014,0,0,0-.146-1.358,2.914,2.914,0,0,0-.488-1.082,2.285,2.285,0,0,0-.916-.714,3.524,3.524,0,0,0-1.439-.257,3.57,3.57,0,0,0-1.348.231,2.332,2.332,0,0,0-.951.669,3.011,3.011,0,0,0-.558,1.062,4.861,4.861,0,0,0-.186,1.414,5.73,5.73,0,0,0,.151,1.358,3,3,0,0,0,.488,1.082,2.168,2.168,0,0,0,.916.709,4.173,4.173,0,0,0,2.8.02,2.42,2.42,0,0,0,.951-.664,2.78,2.78,0,0,0,.548-1.056A5.022,5.022,0,0,0,100.859,9.625Z" transform="translate(-91.25 -3.99)"/></g><g transform="translate(64.275 0.216)"><path class="c" d="M207.023,6.069a2.886,2.886,0,0,0-1.016-1.293,4.714,4.714,0,0,0-1.726-.724,11.53,11.53,0,0,0-2.455-.231,11.349,11.349,0,0,0-1.565.106,12.327,12.327,0,0,0-1.4.272,9.631,9.631,0,0,0-1.127.362,2.731,2.731,0,0,0-.719.387,1.061,1.061,0,0,0-.327.458,1.857,1.857,0,0,0-.08.609,2.6,2.6,0,0,0,.045.5,1.471,1.471,0,0,0,.136.413.745.745,0,0,0,.267.3c.252.171.569.156,1.046-.055.216-.1.488-.206.835-.332a9.563,9.563,0,0,1,1.142-.327,6.641,6.641,0,0,1,1.454-.146,4.453,4.453,0,0,1,1.021.1,1.416,1.416,0,0,1,.6.287,1.073,1.073,0,0,1,.307.468,2.251,2.251,0,0,1,.1.724V8.3h-.926a18.1,18.1,0,0,0-2.837.2,7.4,7.4,0,0,0-2.083.624,3.28,3.28,0,0,0-1.308,1.117,2.87,2.87,0,0,0-.448,1.6,2.944,2.944,0,0,0,1.333,2.551,4.666,4.666,0,0,0,1.454.634,7.513,7.513,0,0,0,1.806.206,6.127,6.127,0,0,0,2.178-.372,5.869,5.869,0,0,0,1.358-.729v.282a.513.513,0,0,0,.206.428,1.028,1.028,0,0,0,.5.171,7.56,7.56,0,0,0,.911.04,7.454,7.454,0,0,0,.88-.04,1.187,1.187,0,0,0,.518-.161.508.508,0,0,0,.241-.438V7.89A5.1,5.1,0,0,0,207.023,6.069Zm-5.871,4.523a8.569,8.569,0,0,1,1.353-.1h1.046V11.8a4.834,4.834,0,0,1-1.082.75,2.656,2.656,0,0,1-1.2.272,1.966,1.966,0,0,1-1.177-.3.884.884,0,0,1-.377-.765.953.953,0,0,1,.136-.513,1.154,1.154,0,0,1,.438-.387A2.886,2.886,0,0,1,201.152,10.592Z" transform="translate(-195.96 -3.82)"/></g><g transform="translate(76.767 0.31)"><path class="c" d="M228.925,5.136a2.57,2.57,0,0,0-.045-.382.875.875,0,0,0-.081-.231.578.578,0,0,0-.181-.206.846.846,0,0,0-.3-.136c-.116-.035-.252-.065-.4-.1s-.3-.045-.438-.06a3.851,3.851,0,0,0-1.192.07,3.015,3.015,0,0,0-.815.312,5.106,5.106,0,0,0-.83.589c-.161.136-.322.292-.493.463V4.864a.527.527,0,0,0-.121-.342.675.675,0,0,0-.322-.206,2.243,2.243,0,0,0-.493-.1c-.2-.02-.438-.03-.735-.03a7.064,7.064,0,0,0-.714.03,2.618,2.618,0,0,0-.5.091.724.724,0,0,0-.352.211.527.527,0,0,0-.121.342v9.7a.5.5,0,0,0,.146.357.808.808,0,0,0,.377.2,2.988,2.988,0,0,0,.563.091c.221.02.493.03.835.03s.619-.01.84-.03a3,3,0,0,0,.558-.091.881.881,0,0,0,.377-.2.5.5,0,0,0,.151-.357V8.6a9.012,9.012,0,0,1,.634-.719,3.742,3.742,0,0,1,.594-.493,2.235,2.235,0,0,1,.528-.262,1.8,1.8,0,0,1,.885-.045c.126.025.247.05.352.08s.206.055.292.08a.806.806,0,0,0,.659-.045.638.638,0,0,0,.236-.312,1.761,1.761,0,0,0,.1-.453,6.125,6.125,0,0,0,.03-.669C228.935,5.5,228.935,5.291,228.925,5.136Z" transform="translate(-220.79 -4.007)"/></g><g transform="translate(84.484 0.221)"><path class="c" d="M248,6.844a4.091,4.091,0,0,0-1.067-1.595A4.917,4.917,0,0,0,245.1,4.2a8.36,8.36,0,0,0-2.641-.372,8.228,8.228,0,0,0-2.626.392,5.6,5.6,0,0,0-2.007,1.152,4.975,4.975,0,0,0-1.263,1.851,6.48,6.48,0,0,0-.433,2.42,6.7,6.7,0,0,0,.413,2.46,4.3,4.3,0,0,0,1.268,1.771,5.557,5.557,0,0,0,2.093,1.036,11,11,0,0,0,2.853.332,13.736,13.736,0,0,0,1.69-.1c.518-.06.991-.136,1.4-.221a9.1,9.1,0,0,0,1.016-.262,1.67,1.67,0,0,0,.553-.252.969.969,0,0,0,.181-.206.848.848,0,0,0,.116-.282,2.353,2.353,0,0,0,.045-.322c.01-.116.015-.257.015-.428,0-.191-.01-.352-.02-.478a.941.941,0,0,0-.1-.362.522.522,0,0,0-.241-.236,1.259,1.259,0,0,0-.9.055c-.211.07-.478.141-.795.226s-.7.156-1.137.221a10.331,10.331,0,0,1-1.519.1,5.068,5.068,0,0,1-1.424-.176,2.381,2.381,0,0,1-.926-.488,1.78,1.78,0,0,1-.508-.76,3.126,3.126,0,0,1-.161-.81h7.028a1.331,1.331,0,0,0,.911-.3,1.158,1.158,0,0,0,.357-.921V8.816A5.716,5.716,0,0,0,248,6.844Zm-6.646-.428a2.657,2.657,0,0,1,1.026-.176,2.228,2.228,0,0,1,1.705.584,2.134,2.134,0,0,1,.508,1.414h-4.538a2.94,2.94,0,0,1,.156-.644,1.959,1.959,0,0,1,1.142-1.177Z" transform="translate(-236.13 -3.83)"/></g><g transform="translate(25.346 0.392)"><path class="c" d="M157.957,4.487a.681.681,0,0,0-.367-.206,3.426,3.426,0,0,0-.543-.08c-.216-.015-.488-.02-.825-.02s-.614.005-.835.02a2.673,2.673,0,0,0-.558.086.757.757,0,0,0-.377.216.662.662,0,0,0-.156.307l-2.088,6.54-2.188-6.6a.8.8,0,0,0-.161-.267.732.732,0,0,0-.367-.2,3.3,3.3,0,0,0-.528-.086c-.211-.02-.488-.03-.825-.03s-.614.005-.825.02a2.508,2.508,0,0,0-.543.086.843.843,0,0,0-.362.211.768.768,0,0,0-.181.317l-2.027,6.5-2.163-6.5a.86.86,0,0,0-.156-.3.727.727,0,0,0-.382-.226,2.786,2.786,0,0,0-.574-.086c-.226-.015-.523-.02-.885-.02-.287,0-.523.005-.729.015a.5.5,0,0,0-.086-.01H128a.4.4,0,0,0-.161.03h-8.16a1.16,1.16,0,0,0-.78.272,1.115,1.115,0,0,0-.317.89v9.2a.417.417,0,0,0,.091.267.71.71,0,0,0,.3.191,2.741,2.741,0,0,0,.568.121,7.37,7.37,0,0,0,.89.04,8.544,8.544,0,0,0,.9-.04,2.9,2.9,0,0,0,.568-.121.613.613,0,0,0,.3-.191.444.444,0,0,0,.086-.267V11.983h4.171a.361.361,0,0,0,.226-.075.607.607,0,0,0,.176-.262,1.689,1.689,0,0,0,.111-.463,1.773,1.773,0,0,0,.035-.423,5.409,5.409,0,0,0-.035-.7,1.656,1.656,0,0,0-.111-.448.569.569,0,0,0-.176-.236.39.39,0,0,0-.226-.07h-4.171V7.219h5.936a.35.35,0,0,0,.126-.025h3.074a.292.292,0,0,1,.292.292V14.71a.306.306,0,0,0,.1.216.715.715,0,0,0,.317.156,3.26,3.26,0,0,0,.579.091c.247.025.548.035.906.035s.659-.01.906-.035a3.259,3.259,0,0,0,.579-.091.718.718,0,0,0,.312-.151.3.3,0,0,0,.1-.216V7.5a.292.292,0,0,1,.292-.292h3.054l2.616,7.265a.868.868,0,0,0,.669.629,3.375,3.375,0,0,0,.689.1c.277.02.634.025,1.092.025.443,0,.8-.005,1.082-.02a3.255,3.255,0,0,0,.7-.1.9.9,0,0,0,.458-.252.977.977,0,0,0,.2-.387l1.655-5.282,1.8,5.282a.985.985,0,0,0,.216.382.927.927,0,0,0,.453.247,3.434,3.434,0,0,0,.7.1c.282.02.634.025,1.087.025s.8-.005,1.077-.02a3,3,0,0,0,.684-.1.967.967,0,0,0,.433-.241,1.086,1.086,0,0,0,.226-.382l3.19-8.784a5.06,5.06,0,0,0,.151-.523,1.643,1.643,0,0,0,.045-.347A.485.485,0,0,0,157.957,4.487Z" transform="translate(-118.58 -4.17)"/></g><g transform="translate(97.263 0.296)"><path class="a" d="M273.74,14.711a.3.3,0,0,0,.121-.272V5.419c0-.946-.06-1.087-.126-1.147a.744.744,0,0,0-.347-.166,3.828,3.828,0,0,0-.574-.091c-.236-.02-.538-.035-.89-.035-.367,0-.674.01-.916.035a3.7,3.7,0,0,0-.579.091.732.732,0,0,0-.337.171.367.367,0,0,0-.121.272v3.6a.292.292,0,0,1-.292.292h-3.964a.292.292,0,0,1-.292-.292v-3.6a.39.39,0,0,0-.116-.272.772.772,0,0,0-.342-.171,3.8,3.8,0,0,0-.579-.091c-.236-.02-.543-.035-.906-.035s-.659.01-.9.035a3.78,3.78,0,0,0-.584.091.747.747,0,0,0-.347.171c-.06.055-.121.2-.121,1.142v9.015a.387.387,0,0,0,.121.272.825.825,0,0,0,.347.171,3.25,3.25,0,0,0,.584.091c.241.02.543.035.9.035a8.9,8.9,0,0,0,.906-.035,3.26,3.26,0,0,0,.579-.091.749.749,0,0,0,.342-.171.388.388,0,0,0,.116-.267V11.4a.292.292,0,0,1,.292-.292h3.964a.292.292,0,0,1,.292.292v3.039a.375.375,0,0,0,.121.272.843.843,0,0,0,.337.171,3.11,3.11,0,0,0,.579.091c.241.02.548.035.916.035a8.7,8.7,0,0,0,.89-.035,3.258,3.258,0,0,0,.579-.091A.858.858,0,0,0,273.74,14.711Z" transform="translate(-261.53 -3.98)"/><g transform="translate(13.423 0.025)"><path class="a" d="M299.66,14.726a.382.382,0,0,0,.1-.262v-9.9a.37.37,0,0,0-.116-.267.761.761,0,0,0-.327-.161,3,3,0,0,0-.548-.086c-.226-.02-.518-.025-.86-.025s-.634.01-.865.025a3.207,3.207,0,0,0-.558.086.661.661,0,0,0-.327.166.369.369,0,0,0-.106.262v6.364a.716.716,0,0,1-.065.267,2.36,2.36,0,0,1-2.948,1.162,1.613,1.613,0,0,1-.619-.423,1.735,1.735,0,0,1-.362-.664,4.111,4.111,0,0,1-.121-1.147V4.568a.37.37,0,0,0-.116-.267.785.785,0,0,0-.332-.161,3.207,3.207,0,0,0-.558-.086c-.226-.02-.518-.025-.86-.025s-.624.01-.855.025a3.265,3.265,0,0,0-.568.086.661.661,0,0,0-.327.166.369.369,0,0,0-.106.262v6.017a6.631,6.631,0,0,0,.236,1.907,3.5,3.5,0,0,0,.795,1.368,3.835,3.835,0,0,0,1.454.931,6.246,6.246,0,0,0,2.2.337,4.682,4.682,0,0,0,3.19-1.3.285.285,0,0,1,.3-.02.3.3,0,0,1,.156.262v.4a.419.419,0,0,0,.091.257.648.648,0,0,0,.287.171,2,2,0,0,0,.478.086c.2.02.448.03.76.03.292,0,.538-.01.734-.03a2.41,2.41,0,0,0,.483-.086A.714.714,0,0,0,299.66,14.726Z" transform="translate(-288.21 -4.03)"/></g><g transform="translate(25.914 0.121)"><path class="a" d="M325.3,6.549a7.127,7.127,0,0,0,.035-.729c0-.277-.015-.81-.035-.946a1.242,1.242,0,0,0-.111-.382A.515.515,0,0,0,325,4.28a.478.478,0,0,0-.241-.06H313.613a.447.447,0,0,0-.252.065.536.536,0,0,0-.176.211,1.286,1.286,0,0,0-.111.382c-.02.136-.035.669-.035.946a7.051,7.051,0,0,0,.035.729,1.427,1.427,0,0,0,.106.377.593.593,0,0,0,.171.216.441.441,0,0,0,.257.075H317a.292.292,0,0,1,.292.292v7.174a.315.315,0,0,0,.1.216.669.669,0,0,0,.312.151,3.723,3.723,0,0,0,.574.091c.241.02.548.035.9.035s.654-.01.9-.035a3.339,3.339,0,0,0,.579-.091.72.72,0,0,0,.312-.151.3.3,0,0,0,.1-.216V7.5a.292.292,0,0,1,.292-.292h3.4a.451.451,0,0,0,.242-.07.532.532,0,0,0,.186-.216A1.083,1.083,0,0,0,325.3,6.549Z" transform="translate(-313.04 -4.22)"/></g></g></g><g transform="translate(0 15.631)"><path class="a" d="M203.444,34.913H67.976a.226.226,0,1,1,0-.453H203.439a.226.226,0,0,1,.005.453Z" transform="translate(-67.75 -34.46)"/></g><g transform="translate(0.282 19.791)"><path class="c" d="M71.791,43.066a.548.548,0,0,1-.005.1.2.2,0,0,1-.025.065.09.09,0,0,1-.04.035.091.091,0,0,1-.05.01H70.363V46.5a.057.057,0,0,1-.015.04.094.094,0,0,1-.05.025.422.422,0,0,1-.1.015,1.322,1.322,0,0,1-.151.005,1.23,1.23,0,0,1-.146-.005c-.04-.005-.075-.01-.1-.015a.094.094,0,0,1-.05-.025.057.057,0,0,1-.015-.04V43.273H68.436a.149.149,0,0,1-.05-.01.089.089,0,0,1-.04-.035.2.2,0,0,1-.025-.065.459.459,0,0,1,0-.191.2.2,0,0,1,.025-.065.07.07,0,0,1,.04-.035.091.091,0,0,1,.05-.01h3.24a.149.149,0,0,1,.05.01.089.089,0,0,1,.04.035.2.2,0,0,1,.025.065Z" transform="translate(-68.31 -42.795)"/><path class="c" d="M79.9,46.367a.489.489,0,0,1-.005.091.253.253,0,0,1-.025.065.09.09,0,0,1-.04.035.179.179,0,0,1-.05.01H77.541a.3.3,0,0,1-.156-.045.165.165,0,0,1-.075-.156V43.051a.165.165,0,0,1,.075-.156.3.3,0,0,1,.156-.045H79.75a.149.149,0,0,1,.05.01.09.09,0,0,1,.04.035.2.2,0,0,1,.025.065.507.507,0,0,1,.01.1.451.451,0,0,1-.01.091.253.253,0,0,1-.025.065.07.07,0,0,1-.04.035.179.179,0,0,1-.05.01H77.929v1.167h1.56a.085.085,0,0,1,.05.015.136.136,0,0,1,.04.035.161.161,0,0,1,.025.065.578.578,0,0,1,.005.1.489.489,0,0,1-.005.091.11.11,0,0,1-.025.06.136.136,0,0,1-.04.035.179.179,0,0,1-.05.01h-1.56v1.333h1.846a.149.149,0,0,1,.05.01.089.089,0,0,1,.04.035.161.161,0,0,1,.025.065A.435.435,0,0,1,79.9,46.367Z" transform="translate(-72.782 -42.79)"/><path class="c" d="M88.7,46.347a.179.179,0,0,1-.025.1.164.164,0,0,1-.065.065.331.331,0,0,1-.181.045h-.206a.865.865,0,0,1-.171-.015.407.407,0,0,1-.136-.055.541.541,0,0,1-.131-.116,1.272,1.272,0,0,1-.141-.186l-1.419-2.118c-.075-.111-.151-.221-.226-.342s-.146-.236-.211-.347h-.005c.005.136.01.277.01.423s.005.287.005.428v2.244a.067.067,0,0,1-.015.04.145.145,0,0,1-.05.03.422.422,0,0,1-.1.015,2.266,2.266,0,0,1-.3,0,.828.828,0,0,1-.091-.015.086.086,0,0,1-.05-.03.057.057,0,0,1-.015-.04V43.036a.181.181,0,0,1,.08-.166.324.324,0,0,1,.176-.05h.307a.937.937,0,0,1,.181.015.5.5,0,0,1,.131.045.366.366,0,0,1,.111.091,1.224,1.224,0,0,1,.111.146l1.092,1.635c.065.1.131.2.2.292s.126.186.181.282.116.181.171.272.111.176.166.267h.005c-.005-.151-.01-.307-.01-.473V42.9a.046.046,0,0,1,.015-.035.145.145,0,0,1,.05-.03.393.393,0,0,1,.1-.02,1.372,1.372,0,0,1,.156-.005,1.275,1.275,0,0,1,.146.005.393.393,0,0,1,.1.02.22.22,0,0,1,.05.03.054.054,0,0,1,.015.035v3.446Z" transform="translate(-76.693 -42.77)"/><path class="c" d="M98.947,44.661a2.094,2.094,0,0,1-.156.845,1.493,1.493,0,0,1-.453.6,2.06,2.06,0,0,1-.729.357,3.86,3.86,0,0,1-1.031.116h-.986a.3.3,0,0,1-.156-.045.165.165,0,0,1-.075-.156V43.061a.165.165,0,0,1,.075-.156.3.3,0,0,1,.156-.045h1.056a3.515,3.515,0,0,1,1.021.126,1.993,1.993,0,0,1,.7.357,1.531,1.531,0,0,1,.428.568A1.692,1.692,0,0,1,98.947,44.661Zm-.649.02a1.6,1.6,0,0,0-.1-.563,1.173,1.173,0,0,0-.292-.448,1.376,1.376,0,0,0-.5-.3,2.478,2.478,0,0,0-.79-.106h-.629V46.16h.639a2.655,2.655,0,0,0,.75-.091,1.391,1.391,0,0,0,.513-.272,1.1,1.1,0,0,0,.307-.463A1.963,1.963,0,0,0,98.3,44.681Z" transform="translate(-81.751 -42.795)"/><path class="c" d="M107.716,46.367a.489.489,0,0,1-.005.091.253.253,0,0,1-.025.065.089.089,0,0,1-.04.035.179.179,0,0,1-.05.01h-2.234a.3.3,0,0,1-.156-.045.165.165,0,0,1-.075-.156V43.051a.165.165,0,0,1,.075-.156.3.3,0,0,1,.156-.045h2.209a.149.149,0,0,1,.05.01.089.089,0,0,1,.04.035.2.2,0,0,1,.025.065.506.506,0,0,1,.01.1.451.451,0,0,1-.01.091.253.253,0,0,1-.025.065.07.07,0,0,1-.04.035.179.179,0,0,1-.05.01h-1.821v1.167h1.56a.085.085,0,0,1,.05.015.136.136,0,0,1,.04.035.161.161,0,0,1,.025.065.577.577,0,0,1,.005.1.489.489,0,0,1-.005.091.11.11,0,0,1-.025.06.136.136,0,0,1-.04.035.179.179,0,0,1-.05.01h-1.56v1.333H107.6a.149.149,0,0,1,.05.01.09.09,0,0,1,.04.035.161.161,0,0,1,.025.065C107.711,46.3,107.716,46.326,107.716,46.367Z" transform="translate(-86.606 -42.79)"/><path class="c" d="M116.114,46.487a.1.1,0,0,1-.01.04.086.086,0,0,1-.045.03.264.264,0,0,1-.1.015,1.673,1.673,0,0,1-.171.005,1.322,1.322,0,0,1-.151-.005.393.393,0,0,1-.1-.02.15.15,0,0,1-.055-.035.208.208,0,0,1-.035-.055l-.433-.875a2.851,2.851,0,0,0-.156-.277,1,1,0,0,0-.191-.216.869.869,0,0,0-.262-.141,1.1,1.1,0,0,0-.362-.05h-.413v1.585a.057.057,0,0,1-.015.04.094.094,0,0,1-.05.025.423.423,0,0,1-.1.015,2.266,2.266,0,0,1-.3,0c-.04-.005-.07-.01-.1-.015a.094.094,0,0,1-.05-.025.057.057,0,0,1-.015-.04V43.041a.165.165,0,0,1,.075-.156.3.3,0,0,1,.156-.045h.991c.116,0,.216,0,.292.005l.211.015a2.377,2.377,0,0,1,.478.116,1.026,1.026,0,0,1,.347.206.757.757,0,0,1,.211.282.88.88,0,0,1,.07.352.806.806,0,0,1-.065.337.721.721,0,0,1-.181.262,1.2,1.2,0,0,1-.287.2,2.13,2.13,0,0,1-.372.141,1.02,1.02,0,0,1,.211.1.969.969,0,0,1,.176.146,1.192,1.192,0,0,1,.151.2c.05.075.1.161.146.252l.418.82a1.251,1.251,0,0,1,.065.146C116.109,46.452,116.114,46.472,116.114,46.487Zm-.936-2.611a.566.566,0,0,0-.121-.367.713.713,0,0,0-.413-.216,1.133,1.133,0,0,0-.2-.03c-.075-.005-.176-.01-.3-.01h-.523v1.253h.6a1.755,1.755,0,0,0,.423-.045.9.9,0,0,0,.3-.131.555.555,0,0,0,.176-.2A.541.541,0,0,0,115.178,43.876Z" transform="translate(-90.522 -42.785)"/><path class="c" d="M125.046,46.482a.057.057,0,0,1-.015.04.094.094,0,0,1-.05.025.422.422,0,0,1-.1.015,1.23,1.23,0,0,1-.146.005,1.322,1.322,0,0,1-.151-.005c-.04-.005-.07-.01-.1-.015a.094.094,0,0,1-.05-.025.057.057,0,0,1-.015-.04v-1.65h-2.118v1.65a.057.057,0,0,1-.015.04.094.094,0,0,1-.05.025.423.423,0,0,1-.1.015,1.322,1.322,0,0,1-.151.005,1.229,1.229,0,0,1-.146-.005c-.04-.005-.075-.01-.1-.015a.094.094,0,0,1-.05-.025.057.057,0,0,1-.015-.04V42.916a.057.057,0,0,1,.015-.04.094.094,0,0,1,.05-.025c.025-.005.055-.01.1-.015A1.275,1.275,0,0,1,122,42.83a1.323,1.323,0,0,1,.151.005c.04.005.07.01.1.015a.094.094,0,0,1,.05.025.057.057,0,0,1,.015.04V44.4h2.118V42.916a.057.057,0,0,1,.015-.04.094.094,0,0,1,.05-.025c.025-.005.055-.01.1-.015a1.323,1.323,0,0,1,.151-.005,1.275,1.275,0,0,1,.146.005c.04.005.07.01.1.015a.094.094,0,0,1,.05.025.057.057,0,0,1,.015.04Z" transform="translate(-94.835 -42.78)"/><path class="c" d="M135.047,45.184a1.364,1.364,0,0,1-.126.6,1.279,1.279,0,0,1-.352.448,1.6,1.6,0,0,1-.563.277,2.863,2.863,0,0,1-.755.1,2.532,2.532,0,0,1-.7-.091,1.606,1.606,0,0,1-.543-.262,1.14,1.14,0,0,1-.347-.438,1.437,1.437,0,0,1-.121-.6v-2.3a.057.057,0,0,1,.015-.04.094.094,0,0,1,.05-.025c.025-.005.055-.01.1-.015a1.323,1.323,0,0,1,.151-.005,1.274,1.274,0,0,1,.146.005c.04.005.07.01.1.015a.094.094,0,0,1,.05.025.057.057,0,0,1,.015.04v2.249a1.155,1.155,0,0,0,.08.453.881.881,0,0,0,.231.322.978.978,0,0,0,.357.191,1.536,1.536,0,0,0,.473.065,1.58,1.58,0,0,0,.483-.065.939.939,0,0,0,.357-.191.862.862,0,0,0,.221-.312,1.173,1.173,0,0,0,.075-.438V42.916a.057.057,0,0,1,.015-.04.094.094,0,0,1,.05-.025c.025-.005.055-.01.1-.015a1.323,1.323,0,0,1,.151-.005,1.274,1.274,0,0,1,.146.005c.04.005.07.01.1.015a.094.094,0,0,1,.05.025.057.057,0,0,1,.015.04v2.269Z" transform="translate(-99.729 -42.78)"/><path class="c" d="M144.041,43.066a.547.547,0,0,1-.005.1.2.2,0,0,1-.025.065.09.09,0,0,1-.04.035.091.091,0,0,1-.05.01h-1.308V46.5a.057.057,0,0,1-.015.04.094.094,0,0,1-.05.025.422.422,0,0,1-.1.015,1.322,1.322,0,0,1-.151.005,1.229,1.229,0,0,1-.146-.005c-.04-.005-.075-.01-.1-.015a.094.094,0,0,1-.05-.025.057.057,0,0,1-.015-.04V43.273h-1.308a.149.149,0,0,1-.05-.01.089.089,0,0,1-.04-.035.2.2,0,0,1-.025-.065.459.459,0,0,1,0-.191.2.2,0,0,1,.025-.065.07.07,0,0,1,.04-.035.091.091,0,0,1,.05-.01h3.24a.149.149,0,0,1,.05.01.089.089,0,0,1,.04.035.2.2,0,0,1,.025.065A.6.6,0,0,0,144.041,43.066Z" transform="translate(-104.212 -42.795)"/><path class="c" d="M156.8,43.293a.547.547,0,0,1-.005.1.235.235,0,0,1-.02.07.093.093,0,0,1-.035.04.147.147,0,0,1-.045.01.414.414,0,0,1-.146-.055,2.832,2.832,0,0,0-.674-.241,2.553,2.553,0,0,0-.558-.055,1.962,1.962,0,0,0-.689.111,1.486,1.486,0,0,0-.518.312,1.353,1.353,0,0,0-.327.473,1.523,1.523,0,0,0-.116.594,1.5,1.5,0,0,0,.126.634,1.326,1.326,0,0,0,.342.468,1.506,1.506,0,0,0,.523.287,2.15,2.15,0,0,0,.669.1,2.575,2.575,0,0,0,.438-.04,2.076,2.076,0,0,0,.413-.126V44.878H155.1a.1.1,0,0,1-.091-.05.308.308,0,0,1-.03-.151.579.579,0,0,1,.005-.1.253.253,0,0,1,.025-.065.067.067,0,0,1,.04-.035.091.091,0,0,1,.055-.01h1.479a.5.5,0,0,1,.08.01.186.186,0,0,1,.07.035.135.135,0,0,1,.05.065.24.24,0,0,1,.02.091v1.419a.278.278,0,0,1-.03.131.226.226,0,0,1-.136.1c-.07.025-.161.06-.272.091s-.226.06-.342.086a2.775,2.775,0,0,1-.357.05c-.121.01-.236.015-.357.015a3.2,3.2,0,0,1-.966-.136,2.09,2.09,0,0,1-.719-.382,1.615,1.615,0,0,1-.448-.594,1.831,1.831,0,0,1-.156-.77,1.865,1.865,0,0,1,.166-.8,1.708,1.708,0,0,1,.473-.614,2.3,2.3,0,0,1,.729-.392,3.34,3.34,0,0,1,1.444-.106c.156.025.292.055.418.086a2.119,2.119,0,0,1,.307.111.887.887,0,0,1,.171.1.259.259,0,0,1,.065.086A1.266,1.266,0,0,1,156.8,43.293Z" transform="translate(-110.403 -42.73)"/><path class="c" d="M166.679,46.487a.1.1,0,0,1-.01.04.086.086,0,0,1-.045.03.264.264,0,0,1-.1.015,1.673,1.673,0,0,1-.171.005,1.322,1.322,0,0,1-.151-.005.393.393,0,0,1-.1-.02.15.15,0,0,1-.055-.035.207.207,0,0,1-.035-.055l-.428-.875a2.851,2.851,0,0,0-.156-.277,1,1,0,0,0-.191-.216.869.869,0,0,0-.262-.141,1.105,1.105,0,0,0-.362-.05H164.2v1.585a.057.057,0,0,1-.015.04.094.094,0,0,1-.05.025.423.423,0,0,1-.1.015,2.266,2.266,0,0,1-.3,0c-.04-.005-.07-.01-.1-.015a.094.094,0,0,1-.05-.025.057.057,0,0,1-.015-.04V43.041a.165.165,0,0,1,.075-.156.3.3,0,0,1,.156-.045h.991c.116,0,.216,0,.292.005l.211.015a2.377,2.377,0,0,1,.478.116,1.026,1.026,0,0,1,.347.206.757.757,0,0,1,.211.282.88.88,0,0,1,.07.352.806.806,0,0,1-.065.337.721.721,0,0,1-.181.262,1.2,1.2,0,0,1-.287.2,2.13,2.13,0,0,1-.372.141,1.02,1.02,0,0,1,.211.1.969.969,0,0,1,.176.146,1.192,1.192,0,0,1,.151.2c.05.075.1.161.146.252l.418.82a1.25,1.25,0,0,1,.065.146C166.674,46.452,166.679,46.472,166.679,46.487Zm-.936-2.611a.566.566,0,0,0-.121-.367.713.713,0,0,0-.413-.216,1.132,1.132,0,0,0-.2-.03c-.075-.005-.176-.01-.3-.01h-.523v1.253h.6a1.755,1.755,0,0,0,.423-.045.9.9,0,0,0,.3-.131.555.555,0,0,0,.176-.2A.541.541,0,0,0,165.743,43.876Z" transform="translate(-115.65 -42.785)"/><path class="c" d="M175.751,44.616a2.429,2.429,0,0,1-.131.815,1.659,1.659,0,0,1-.4.619,1.739,1.739,0,0,1-.664.392,3.307,3.307,0,0,1-1.841.01,1.692,1.692,0,0,1-.634-.362,1.475,1.475,0,0,1-.372-.594,2.526,2.526,0,0,1-.121-.815,2.382,2.382,0,0,1,.131-.8,1.582,1.582,0,0,1,.4-.609,1.8,1.8,0,0,1,.664-.387,2.9,2.9,0,0,1,.931-.136,2.809,2.809,0,0,1,.9.126,1.567,1.567,0,0,1,.634.362,1.466,1.466,0,0,1,.377.589A2.1,2.1,0,0,1,175.751,44.616Zm-.654.035a2.42,2.42,0,0,0-.07-.589,1.26,1.26,0,0,0-.231-.473,1.135,1.135,0,0,0-.438-.312,1.767,1.767,0,0,0-.674-.111,1.666,1.666,0,0,0-.674.121,1.174,1.174,0,0,0-.443.322,1.231,1.231,0,0,0-.247.468,2.06,2.06,0,0,0-.075.563,2.311,2.311,0,0,0,.07.6,1.178,1.178,0,0,0,.231.478,1.068,1.068,0,0,0,.433.312,1.777,1.777,0,0,0,.679.111,1.717,1.717,0,0,0,.684-.121,1.2,1.2,0,0,0,.448-.327,1.3,1.3,0,0,0,.241-.478A2.554,2.554,0,0,0,175.1,44.652Z" transform="translate(-119.631 -42.74)"/><path class="c" d="M186.037,45.184a1.364,1.364,0,0,1-.126.6,1.279,1.279,0,0,1-.352.448,1.6,1.6,0,0,1-.563.277,2.863,2.863,0,0,1-.755.1,2.532,2.532,0,0,1-.7-.091,1.606,1.606,0,0,1-.543-.262,1.14,1.14,0,0,1-.347-.438,1.437,1.437,0,0,1-.121-.6v-2.3a.057.057,0,0,1,.015-.04.094.094,0,0,1,.05-.025c.025-.005.055-.01.1-.015a1.323,1.323,0,0,1,.151-.005,1.275,1.275,0,0,1,.146.005c.04.005.07.01.1.015a.094.094,0,0,1,.05.025.057.057,0,0,1,.015.04v2.249a1.155,1.155,0,0,0,.081.453.881.881,0,0,0,.231.322.978.978,0,0,0,.357.191,1.536,1.536,0,0,0,.473.065,1.58,1.58,0,0,0,.483-.065.939.939,0,0,0,.357-.191.862.862,0,0,0,.221-.312,1.173,1.173,0,0,0,.075-.438V42.916a.057.057,0,0,1,.015-.04.094.094,0,0,1,.05-.025c.025-.005.055-.01.1-.015a1.323,1.323,0,0,1,.151-.005,1.275,1.275,0,0,1,.146.005c.04.005.07.01.1.015a.094.094,0,0,1,.05.025.057.057,0,0,1,.015.04v2.269Z" transform="translate(-125.067 -42.78)"/><path class="c" d="M195.523,43.932a1.105,1.105,0,0,1-.116.5,1.081,1.081,0,0,1-.327.382,1.629,1.629,0,0,1-.523.247,2.887,2.887,0,0,1-.745.086h-.528v1.338a.057.057,0,0,1-.015.04.094.094,0,0,1-.05.025.423.423,0,0,1-.1.015,2.266,2.266,0,0,1-.3,0c-.04-.005-.07-.01-.1-.015a.094.094,0,0,1-.05-.025.057.057,0,0,1-.015-.04V43.056a.189.189,0,0,1,.075-.166.286.286,0,0,1,.171-.05h1c.1,0,.2.005.292.01a2.39,2.39,0,0,1,.327.045,1.511,1.511,0,0,1,.387.126,1.234,1.234,0,0,1,.332.221.93.93,0,0,1,.211.307A.942.942,0,0,1,195.523,43.932Zm-.649.04a.642.642,0,0,0-.106-.377.664.664,0,0,0-.262-.226,1.075,1.075,0,0,0-.322-.1,2.427,2.427,0,0,0-.327-.02h-.574v1.494h.558a1.753,1.753,0,0,0,.468-.055.913.913,0,0,0,.312-.161.654.654,0,0,0,.191-.247A.8.8,0,0,0,194.874,43.972Z" transform="translate(-130.1 -42.785)"/></g></g></svg>